<svg xmlns="http://www.w3.org/2000/svg" viewBox="0 0 1024 1024">
  <defs>
    <linearGradient id="base" x1="176" y1="92" x2="848" y2="932" gradientUnits="userSpaceOnUse">
      <stop offset="0" stop-color="#23322f"/>
      <stop offset="0.52" stop-color="#101716"/>
      <stop offset="1" stop-color="#080a0b"/>
    </linearGradient>
    <linearGradient id="heat" x1="332" y1="286" x2="692" y2="772" gradientUnits="userSpaceOnUse">
      <stop offset="0" stop-color="#ffe08c"/>
      <stop offset="0.42" stop-color="#f28d32"/>
      <stop offset="1" stop-color="#e7352f"/>
    </linearGradient>
    <radialGradient id="bulb" cx="0" cy="0" r="1" gradientUnits="userSpaceOnUse" gradientTransform="translate(486 674) rotate(64) scale(174 154)">
      <stop offset="0" stop-color="#fff1a7"/>
      <stop offset="0.48" stop-color="#f28c2d"/>
      <stop offset="1" stop-color="#c91e2d"/>
    </radialGradient>
    <linearGradient id="starGold" x1="600" y1="236" x2="828" y2="462" gradientUnits="userSpaceOnUse">
      <stop offset="0" stop-color="#fff8c9"/>
      <stop offset="0.34" stop-color="#f8c95b"/>
      <stop offset="0.7" stop-color="#d88724"/>
      <stop offset="1" stop-color="#7e4318"/>
    </linearGradient>
    <linearGradient id="starEdge" x1="612" y1="254" x2="816" y2="442" gradientUnits="userSpaceOnUse">
      <stop offset="0" stop-color="#fff5bd"/>
      <stop offset="1" stop-color="#6f3713"/>
    </linearGradient>
    <clipPath id="round">
      <rect x="0" y="0" width="1024" height="1024" rx="236"/>
    </clipPath>
  </defs>

  <rect x="0" y="0" width="1024" height="1024" rx="236" fill="url(#base)"/>
  <g clip-path="url(#round)">
    <path d="M54 106 C212 14 492 28 690 80 C852 122 982 294 1012 466 L1012 0 L0 0 L0 280 C12 210 28 144 54 106 Z" fill="#ffffff" opacity="0.06"/>
    <path d="M74 842 C238 974 568 1008 800 890 C900 838 972 742 1018 620 L1018 1024 L0 1024 L0 750 C20 786 44 818 74 842 Z" fill="#000000" opacity="0.2"/>
    <rect x="226" y="172" width="572" height="76" rx="38" fill="#dfeee6" opacity="0.12"/>
    <circle cx="302" cy="210" r="13" fill="#dfeee6" opacity="0.32"/>
    <circle cx="354" cy="210" r="13" fill="#dfeee6" opacity="0.22"/>
    <circle cx="406" cy="210" r="13" fill="#dfeee6" opacity="0.15"/>

    <path d="M348 468 H430 M348 546 H406 M348 624 H430" fill="none" stroke="#b9cec4" stroke-width="30" stroke-linecap="round" opacity="0.32"/>
    <path d="M676 468 H594 M700 546 H618 M676 624 H594" fill="none" stroke="#b9cec4" stroke-width="30" stroke-linecap="round" opacity="0.22"/>

    <path d="M512 318 V698" fill="none" stroke="#2a3835" stroke-width="108" stroke-linecap="round"/>
    <path d="M512 318 V696" fill="none" stroke="url(#heat)" stroke-width="68" stroke-linecap="round"/>

    <circle cx="512" cy="718" r="136" fill="#1c2624"/>
    <circle cx="512" cy="718" r="102" fill="url(#bulb)"/>
    <circle cx="472" cy="674" r="28" fill="#fff7bd" opacity="0.85"/>
    <path d="M512 318 V708" fill="none" stroke="#fff1a7" stroke-width="22" stroke-linecap="round" opacity="0.42"/>

    <path d="M722 226 L756 314 L850 306 L782 374 L806 468 L722 420 L638 468 L662 374 L594 306 L688 314 Z" fill="#050606" opacity="0.22"/>
    <path d="M714 218 L748 306 L842 298 L774 366 L798 460 L714 412 L630 460 L654 366 L586 298 L680 306 Z" fill="url(#starGold)"/>
    <path d="M714 218 L748 306 L714 352 L680 306 Z" fill="#fff5b8" opacity="0.92"/>
    <path d="M842 298 L774 366 L714 352 L748 306 Z" fill="#f2b23d" opacity="0.96"/>
    <path d="M798 460 L714 412 L714 352 L774 366 Z" fill="#b9641f" opacity="0.92"/>
    <path d="M630 460 L654 366 L714 352 L714 412 Z" fill="#dc8024" opacity="0.88"/>
    <path d="M586 298 L680 306 L714 352 L654 366 Z" fill="#ffd66f" opacity="0.9"/>
    <path d="M714 218 L748 306 L842 298 L774 366 L798 460 L714 412 L630 460 L654 366 L586 298 L680 306 Z" fill="none" stroke="url(#starEdge)" stroke-width="8" stroke-linejoin="round" opacity="0.46"/>
    <path d="M680 306 L714 352 L774 366" fill="none" stroke="#fff2a8" stroke-width="5" stroke-linecap="round" stroke-linejoin="round" opacity="0.34"/>
  </g>
</svg>
